<?xml version="1.0" encoding="utf-8"?>
<!-- Generator: Adobe Illustrator 27.3.1, SVG Export Plug-In . SVG Version: 6.00 Build 0)  -->
<svg version="1.1" id="Слой_1" xmlns="http://www.w3.org/2000/svg" xmlns:xlink="http://www.w3.org/1999/xlink" x="0px" y="0px"
	 viewBox="0 0 4440 2680" style="enable-background:new 0 0 4440 2680;" xml:space="preserve">
<style type="text/css">
	.st0{fill:#4B4B51;}
	.st1{fill:#EEF0F2;}
	.st2{fill:#FFFFFF;}
</style>
<g>
	<path class="st1" d="M784.44,1879.71h251.12v-861.84l-251.12,100.96V1879.71z M784.44,791.79v272.64l251.12-185.92v-86.72H784.44z"
		/>
	<path class="st1" d="M1788,1224.82l-156.72,153.11c-18.07-19.87-39.3-34.33-63.23-43.81c-23.94-9.48-51.49-14-82.2-14
		c-35.23,0-66.39,7.68-93.49,22.58c-27.55,15.36-48.78,36.13-64.13,62.78c-15.36,26.65-23.03,57.36-23.03,93.04
		c0,35.23,7.67,66.85,23.03,93.94c15.35,27.1,37.03,48.33,64.58,64.13c18.97,10.39,38.84,17.62,60.53,20.78
		c10.39,1.81,21.23,2.71,32.52,2.71c10.39,0,19.87-0.45,29.35-1.81l-246.15,169.37c-1.36-0.45-2.71-0.9-4.07-1.81
		c-8.13-4.06-15.8-8.58-23.48-13.1c-53.75-33.42-97.11-76.33-130.08-129.17c-37.04-60.52-56-128.72-56-203.7
		c0-75.88,18.97-144.08,56.91-204.15c37.94-60.07,89.43-107.04,154.46-141.37c65.04-34.33,137.76-51.94,219.06-51.94
		c60.52,0,116.07,10.39,167.11,30.71C1703.54,1153.46,1748.26,1184.18,1788,1224.82z"/>
	<path class="st1" d="M2378.76,1102.43v449.39c0,68.2-15.36,128.27-46.07,180.21c-31.17,51.49-73.62,92.14-127.82,121.49
		c-54.65,29.36-117.43,43.81-188.79,43.81c-71.36,0-134.59-14.45-189.7-43.81c-51.04-27.55-91.68-64.59-122.4-111.56
		c-2.25-3.16-4.06-6.78-6.32-9.94c-16.26-28-28.45-57.81-35.68-89.88c-1.36-3.16-1.81-6.77-2.71-9.94
		c-3.16-15.36-5.42-31.16-6.32-47.88l242.99-167.11v133.24c0,23.48,3.61,43.81,10.84,61.42c0.45,2.26,1.8,4.97,2.71,7.23
		c9.04,18.97,22.58,34.33,41.1,44.72c18.07,10.84,39.75,15.81,65.49,15.81c36.13,0,65.04-11.29,86.26-34.33
		c21.23-22.58,32.07-54.65,32.07-94.85v-296.74l220.41-151.3H2378.76z"/>
	<polygon class="st1" points="2999.33,1102.88 2999.33,1310.64 2823.18,1310.64 2823.18,1879.72 2578.84,1879.72 2578.84,1310.64 
		2402.7,1310.64 2402.7,1102.88 2578.84,1102.88 2578.84,948.41 2823.18,780.85 2823.18,1102.88 	"/>
	<path class="st1" d="M3541.8,1471.39c-28.48-17.6-58.72-31.6-90.8-42c-32.08-10.32-62.32-19.36-91.28-26.64
		c-28.88-7.2-52.4-15.36-70.4-24.8c-18.08-9.52-27.12-21.68-27.12-37.52c0-14.48,6.8-25.76,20.8-33.44
		c14-7.68,34.72-11.68,62.32-11.68c28.88,0,58.24,5.84,88.48,17.12c30.72,11.76,58.32,31.2,82.64,59.2l139.12-136.88
		c-35.2-43.36-80.8-76.32-136.8-98.88c-56-22.16-117.04-33.44-182.96-33.44c-62.8,0-117.84,10.4-164.88,31.12
		c-46.96,20.8-83.04,49.28-108.8,84.96c-25.28,35.68-38.4,78.16-38.4,126.88c0,45.6,9.52,83.12,27.52,112.48
		c18.08,29.84,41.6,52.88,70,69.12c28.96,16.72,59.2,29.76,91.28,39.28c32.08,9.04,62.32,17.6,91.2,25.28
		c28.96,8.16,52.4,16.72,71.36,26.64c18.56,9.92,27.6,23.92,27.6,42.96c0,14.4-7.68,25.68-23.04,33.84
		c-15.36,8.56-37.52,12.64-66.4,12.64c-41.6,0-79.92-7.68-115.2-22.56c-35.2-14.96-65.44-36.16-90.8-62.8l-139.52,136.88
		c27.12,28,59.12,52.4,97.12,73.6c37.44,21.2,78.56,37.52,122.8,49.2c44.32,11.28,89.44,17.2,135.04,17.2
		c97.12,0,174.4-22.16,231.28-65.52c56.88-43.76,85.36-102.08,85.36-175.68c0-47.84-9.04-86.24-27.12-116.08
		C3594.12,1512.51,3570.68,1489.07,3541.8,1471.39z"/>
</g>
</svg>
